<mxfile host="Electron" modified="2023-04-26T20:04:41.864Z" agent="Mozilla/5.0 (Windows NT 10.0; Win64; x64) AppleWebKit/537.36 (KHTML, like Gecko) draw.io/21.1.2 Chrome/106.0.5249.199 Electron/21.4.3 Safari/537.36" etag="L9fHT6np7eJ-LSDNSRVO" version="21.1.2" type="device">
  <diagram name="Page-1" id="iESzuTcwccEXFpF8bF94">
    <mxGraphModel dx="3240" dy="1407" grid="1" gridSize="10" guides="1" tooltips="1" connect="1" arrows="1" fold="1" page="1" pageScale="1" pageWidth="850" pageHeight="1100" background="#FFFFFF" math="0" shadow="0">
      <root>
        <mxCell id="0" />
        <mxCell id="1" parent="0" />
        <mxCell id="2jos74vlzQx_kcMCBI00-2" value="EMPLOYEE" style="swimlane;fontStyle=1;align=center;verticalAlign=top;childLayout=stackLayout;horizontal=1;startSize=26;horizontalStack=0;resizeParent=1;resizeLast=0;collapsible=1;marginBottom=0;rounded=0;shadow=0;strokeWidth=1;fillColor=#fff2cc;strokeColor=#d6b656;" parent="1" vertex="1">
          <mxGeometry x="230" y="20" width="160" height="240" as="geometry">
            <mxRectangle x="550" y="140" width="160" height="26" as="alternateBounds" />
          </mxGeometry>
        </mxCell>
        <mxCell id="2jos74vlzQx_kcMCBI00-3" value="EmployeeID" style="text;align=left;verticalAlign=top;spacingLeft=4;spacingRight=4;overflow=hidden;rotatable=0;points=[[0,0.5],[1,0.5]];portConstraint=eastwest;rounded=0;" parent="2jos74vlzQx_kcMCBI00-2" vertex="1">
          <mxGeometry y="26" width="160" height="26" as="geometry" />
        </mxCell>
        <mxCell id="2jos74vlzQx_kcMCBI00-4" value="" style="endArrow=none;html=1;rounded=0;" parent="2jos74vlzQx_kcMCBI00-2" edge="1">
          <mxGeometry width="50" height="50" relative="1" as="geometry">
            <mxPoint x="2" y="51" as="sourcePoint" />
            <mxPoint x="92" y="51" as="targetPoint" />
          </mxGeometry>
        </mxCell>
        <mxCell id="2jos74vlzQx_kcMCBI00-5" value="First_Name" style="text;align=left;verticalAlign=top;spacingLeft=4;spacingRight=4;overflow=hidden;rotatable=0;points=[[0,0.5],[1,0.5]];portConstraint=eastwest;rounded=0;shadow=0;html=0;" parent="2jos74vlzQx_kcMCBI00-2" vertex="1">
          <mxGeometry y="52" width="160" height="26" as="geometry" />
        </mxCell>
        <mxCell id="2jos74vlzQx_kcMCBI00-6" value="Last_Name" style="text;align=left;verticalAlign=top;spacingLeft=4;spacingRight=4;overflow=hidden;rotatable=0;points=[[0,0.5],[1,0.5]];portConstraint=eastwest;rounded=0;shadow=0;html=0;" parent="2jos74vlzQx_kcMCBI00-2" vertex="1">
          <mxGeometry y="78" width="160" height="26" as="geometry" />
        </mxCell>
        <mxCell id="2jos74vlzQx_kcMCBI00-7" value="Date_Of_Birth" style="text;align=left;verticalAlign=top;spacingLeft=4;spacingRight=4;overflow=hidden;rotatable=0;points=[[0,0.5],[1,0.5]];portConstraint=eastwest;rounded=0;shadow=0;html=0;" parent="2jos74vlzQx_kcMCBI00-2" vertex="1">
          <mxGeometry y="104" width="160" height="26" as="geometry" />
        </mxCell>
        <mxCell id="2jos74vlzQx_kcMCBI00-8" value="Gender&#xa;" style="text;align=left;verticalAlign=top;spacingLeft=4;spacingRight=4;overflow=hidden;rotatable=0;points=[[0,0.5],[1,0.5]];portConstraint=eastwest;rounded=0;shadow=0;html=0;" parent="2jos74vlzQx_kcMCBI00-2" vertex="1">
          <mxGeometry y="130" width="160" height="26" as="geometry" />
        </mxCell>
        <mxCell id="2jos74vlzQx_kcMCBI00-9" value="Email" style="text;align=left;verticalAlign=top;spacingLeft=4;spacingRight=4;overflow=hidden;rotatable=0;points=[[0,0.5],[1,0.5]];portConstraint=eastwest;rounded=0;" parent="2jos74vlzQx_kcMCBI00-2" vertex="1">
          <mxGeometry y="156" width="160" height="26" as="geometry" />
        </mxCell>
        <mxCell id="2jos74vlzQx_kcMCBI00-10" value="Phone" style="text;align=left;verticalAlign=top;spacingLeft=4;spacingRight=4;overflow=hidden;rotatable=0;points=[[0,0.5],[1,0.5]];portConstraint=eastwest;rounded=0;" parent="2jos74vlzQx_kcMCBI00-2" vertex="1">
          <mxGeometry y="182" width="160" height="28" as="geometry" />
        </mxCell>
        <mxCell id="2jos74vlzQx_kcMCBI00-11" value="&amp;nbsp;Address" style="text;html=1;align=left;verticalAlign=top;resizable=0;points=[];autosize=1;strokeColor=none;fillColor=none;rounded=0;" parent="2jos74vlzQx_kcMCBI00-2" vertex="1">
          <mxGeometry y="210" width="160" height="30" as="geometry" />
        </mxCell>
        <mxCell id="iBV01vkhTkMkZKRMCeMt-53" style="edgeStyle=orthogonalEdgeStyle;rounded=0;orthogonalLoop=1;jettySize=auto;html=1;exitX=0.378;exitY=1.019;exitDx=0;exitDy=0;entryX=-0.003;entryY=0.102;entryDx=0;entryDy=0;entryPerimeter=0;startArrow=ERmandOne;startFill=0;endArrow=ERoneToMany;endFill=0;exitPerimeter=0;" parent="1" source="2jos74vlzQx_kcMCBI00-17" target="2jos74vlzQx_kcMCBI00-61" edge="1">
          <mxGeometry relative="1" as="geometry">
            <Array as="points">
              <mxPoint x="401" y="890" />
            </Array>
          </mxGeometry>
        </mxCell>
        <mxCell id="iBV01vkhTkMkZKRMCeMt-54" value="adds" style="edgeLabel;html=1;align=center;verticalAlign=middle;resizable=0;points=[];rounded=0;" parent="iBV01vkhTkMkZKRMCeMt-53" vertex="1" connectable="0">
          <mxGeometry x="-0.0169" y="-1" relative="1" as="geometry">
            <mxPoint as="offset" />
          </mxGeometry>
        </mxCell>
        <mxCell id="2jos74vlzQx_kcMCBI00-13" value="FACULTY" style="swimlane;fontStyle=1;align=center;verticalAlign=top;childLayout=stackLayout;horizontal=1;startSize=26;horizontalStack=0;resizeParent=1;resizeLast=0;collapsible=1;marginBottom=0;rounded=0;shadow=0;strokeWidth=1;fillColor=#fff2cc;strokeColor=#d6b656;" parent="1" vertex="1">
          <mxGeometry x="340" y="440" width="160" height="104" as="geometry">
            <mxRectangle x="550" y="140" width="160" height="26" as="alternateBounds" />
          </mxGeometry>
        </mxCell>
        <mxCell id="2jos74vlzQx_kcMCBI00-14" value="FacultyID" style="text;align=left;verticalAlign=top;spacingLeft=4;spacingRight=4;overflow=hidden;rotatable=0;points=[[0,0.5],[1,0.5]];portConstraint=eastwest;rounded=0;" parent="2jos74vlzQx_kcMCBI00-13" vertex="1">
          <mxGeometry y="26" width="160" height="26" as="geometry" />
        </mxCell>
        <mxCell id="2jos74vlzQx_kcMCBI00-15" value="" style="endArrow=none;html=1;rounded=0;" parent="2jos74vlzQx_kcMCBI00-13" edge="1">
          <mxGeometry width="50" height="50" relative="1" as="geometry">
            <mxPoint x="2" y="51" as="sourcePoint" />
            <mxPoint x="92" y="51" as="targetPoint" />
          </mxGeometry>
        </mxCell>
        <mxCell id="2jos74vlzQx_kcMCBI00-16" value="DeptID" style="text;align=left;verticalAlign=top;spacingLeft=4;spacingRight=4;overflow=hidden;rotatable=0;points=[[0,0.5],[1,0.5]];portConstraint=eastwest;rounded=0;shadow=0;html=0;" parent="2jos74vlzQx_kcMCBI00-13" vertex="1">
          <mxGeometry y="52" width="160" height="26" as="geometry" />
        </mxCell>
        <mxCell id="2jos74vlzQx_kcMCBI00-17" value="Date of joining" style="text;align=left;verticalAlign=top;spacingLeft=4;spacingRight=4;overflow=hidden;rotatable=0;points=[[0,0.5],[1,0.5]];portConstraint=eastwest;rounded=0;shadow=0;html=0;" parent="2jos74vlzQx_kcMCBI00-13" vertex="1">
          <mxGeometry y="78" width="160" height="26" as="geometry" />
        </mxCell>
        <mxCell id="2jos74vlzQx_kcMCBI00-18" value="DEPARTMENTHEAD" style="swimlane;fontStyle=1;align=center;verticalAlign=top;childLayout=stackLayout;horizontal=1;startSize=26;horizontalStack=0;resizeParent=1;resizeLast=0;collapsible=1;marginBottom=0;rounded=0;shadow=0;strokeWidth=1;fillColor=#fff2cc;strokeColor=#d6b656;" parent="1" vertex="1">
          <mxGeometry x="70" y="440" width="160" height="102" as="geometry">
            <mxRectangle x="550" y="140" width="160" height="26" as="alternateBounds" />
          </mxGeometry>
        </mxCell>
        <mxCell id="2jos74vlzQx_kcMCBI00-19" value="DHID" style="text;align=left;verticalAlign=top;spacingLeft=4;spacingRight=4;overflow=hidden;rotatable=0;points=[[0,0.5],[1,0.5]];portConstraint=eastwest;rounded=0;" parent="2jos74vlzQx_kcMCBI00-18" vertex="1">
          <mxGeometry y="26" width="160" height="24" as="geometry" />
        </mxCell>
        <mxCell id="2jos74vlzQx_kcMCBI00-20" value="" style="endArrow=none;html=1;rounded=0;" parent="2jos74vlzQx_kcMCBI00-18" edge="1">
          <mxGeometry width="50" height="50" relative="1" as="geometry">
            <mxPoint x="2" y="51" as="sourcePoint" />
            <mxPoint x="92" y="51" as="targetPoint" />
          </mxGeometry>
        </mxCell>
        <mxCell id="2jos74vlzQx_kcMCBI00-22" value="Start_DateÂ " style="text;align=left;verticalAlign=top;spacingLeft=4;spacingRight=4;overflow=hidden;rotatable=0;points=[[0,0.5],[1,0.5]];portConstraint=eastwest;rounded=0;shadow=0;html=0;" parent="2jos74vlzQx_kcMCBI00-18" vertex="1">
          <mxGeometry y="50" width="160" height="22" as="geometry" />
        </mxCell>
        <mxCell id="2jos74vlzQx_kcMCBI00-24" value="&amp;nbsp;End_Date" style="text;html=1;align=left;verticalAlign=middle;resizable=0;points=[];autosize=1;strokeColor=none;fillColor=none;rounded=0;" parent="2jos74vlzQx_kcMCBI00-18" vertex="1">
          <mxGeometry y="72" width="160" height="30" as="geometry" />
        </mxCell>
        <mxCell id="2jos74vlzQx_kcMCBI00-26" value="DEPARTMENT" style="swimlane;fontStyle=1;align=center;verticalAlign=top;childLayout=stackLayout;horizontal=1;startSize=26;horizontalStack=0;resizeParent=1;resizeLast=0;collapsible=1;marginBottom=0;rounded=0;shadow=0;strokeWidth=1;fillColor=#fff2cc;strokeColor=#d6b656;" parent="1" vertex="1">
          <mxGeometry x="190" y="661.5" width="160" height="82" as="geometry">
            <mxRectangle x="550" y="140" width="160" height="26" as="alternateBounds" />
          </mxGeometry>
        </mxCell>
        <mxCell id="2jos74vlzQx_kcMCBI00-27" value="DepartmentID" style="text;align=left;verticalAlign=top;spacingLeft=4;spacingRight=4;overflow=hidden;rotatable=0;points=[[0,0.5],[1,0.5]];portConstraint=eastwest;rounded=0;" parent="2jos74vlzQx_kcMCBI00-26" vertex="1">
          <mxGeometry y="26" width="160" height="26" as="geometry" />
        </mxCell>
        <mxCell id="2jos74vlzQx_kcMCBI00-28" value="" style="endArrow=none;html=1;rounded=0;" parent="2jos74vlzQx_kcMCBI00-26" edge="1">
          <mxGeometry width="50" height="50" relative="1" as="geometry">
            <mxPoint x="2" y="51" as="sourcePoint" />
            <mxPoint x="92" y="51" as="targetPoint" />
          </mxGeometry>
        </mxCell>
        <mxCell id="2jos74vlzQx_kcMCBI00-29" value="Department_Name" style="text;align=left;verticalAlign=top;spacingLeft=4;spacingRight=4;overflow=hidden;rotatable=0;points=[[0,0.5],[1,0.5]];portConstraint=eastwest;rounded=0;shadow=0;html=0;" parent="2jos74vlzQx_kcMCBI00-26" vertex="1">
          <mxGeometry y="52" width="160" height="26" as="geometry" />
        </mxCell>
        <mxCell id="iBV01vkhTkMkZKRMCeMt-43" style="edgeStyle=orthogonalEdgeStyle;rounded=0;orthogonalLoop=1;jettySize=auto;html=1;startArrow=ERmandOne;startFill=0;endArrow=ERoneToMany;endFill=0;entryX=0.212;entryY=-0.012;entryDx=0;entryDy=0;entryPerimeter=0;" parent="1" source="2jos74vlzQx_kcMCBI00-30" target="2jos74vlzQx_kcMCBI00-45" edge="1">
          <mxGeometry relative="1" as="geometry">
            <mxPoint x="560" y="560" as="targetPoint" />
            <Array as="points">
              <mxPoint x="550" y="560" />
              <mxPoint x="1204" y="560" />
            </Array>
          </mxGeometry>
        </mxCell>
        <mxCell id="iBV01vkhTkMkZKRMCeMt-45" value="offers" style="edgeLabel;html=1;align=center;verticalAlign=middle;resizable=0;points=[];rounded=0;" parent="iBV01vkhTkMkZKRMCeMt-43" vertex="1" connectable="0">
          <mxGeometry x="0.0284" y="2" relative="1" as="geometry">
            <mxPoint as="offset" />
          </mxGeometry>
        </mxCell>
        <mxCell id="CVn_4utd9kQLh8Rls4Vv-14" style="edgeStyle=orthogonalEdgeStyle;rounded=0;orthogonalLoop=1;jettySize=auto;html=1;exitX=0.5;exitY=1;exitDx=0;exitDy=0;endArrow=none;endFill=0;startArrow=ERmandOne;startFill=0;" parent="1" source="2jos74vlzQx_kcMCBI00-30" edge="1">
          <mxGeometry relative="1" as="geometry">
            <mxPoint x="550" y="800" as="targetPoint" />
          </mxGeometry>
        </mxCell>
        <mxCell id="2jos74vlzQx_kcMCBI00-30" value="PROGRAM" style="swimlane;fontStyle=1;align=center;verticalAlign=top;childLayout=stackLayout;horizontal=1;startSize=26;horizontalStack=0;resizeParent=1;resizeLast=0;collapsible=1;marginBottom=0;rounded=0;shadow=0;strokeWidth=1;fillColor=#fff2cc;strokeColor=#d6b656;" parent="1" vertex="1">
          <mxGeometry x="470" y="661.5" width="160" height="83" as="geometry">
            <mxRectangle x="550" y="140" width="160" height="26" as="alternateBounds" />
          </mxGeometry>
        </mxCell>
        <mxCell id="2jos74vlzQx_kcMCBI00-31" value="ProgramID" style="text;align=left;verticalAlign=top;spacingLeft=4;spacingRight=4;overflow=hidden;rotatable=0;points=[[0,0.5],[1,0.5]];portConstraint=eastwest;rounded=0;" parent="2jos74vlzQx_kcMCBI00-30" vertex="1">
          <mxGeometry y="26" width="160" height="26" as="geometry" />
        </mxCell>
        <mxCell id="2jos74vlzQx_kcMCBI00-32" value="" style="endArrow=none;html=1;rounded=0;" parent="2jos74vlzQx_kcMCBI00-30" edge="1">
          <mxGeometry width="50" height="50" relative="1" as="geometry">
            <mxPoint x="2" y="51" as="sourcePoint" />
            <mxPoint x="92" y="51" as="targetPoint" />
          </mxGeometry>
        </mxCell>
        <mxCell id="2jos74vlzQx_kcMCBI00-33" value="Program_Name" style="text;align=left;verticalAlign=top;spacingLeft=4;spacingRight=4;overflow=hidden;rotatable=0;points=[[0,0.5],[1,0.5]];portConstraint=eastwest;rounded=0;shadow=0;html=0;" parent="2jos74vlzQx_kcMCBI00-30" vertex="1">
          <mxGeometry y="52" width="160" height="26" as="geometry" />
        </mxCell>
        <mxCell id="2jos74vlzQx_kcMCBI00-34" value="STUDENT" style="swimlane;fontStyle=1;align=center;verticalAlign=top;childLayout=stackLayout;horizontal=1;startSize=26;horizontalStack=0;resizeParent=1;resizeLast=0;collapsible=1;marginBottom=0;rounded=0;shadow=0;strokeWidth=1;fillColor=#fff2cc;strokeColor=#d6b656;" parent="1" vertex="1">
          <mxGeometry x="1740" y="990" width="160" height="277" as="geometry">
            <mxRectangle x="550" y="140" width="160" height="26" as="alternateBounds" />
          </mxGeometry>
        </mxCell>
        <mxCell id="2jos74vlzQx_kcMCBI00-35" value="StudentID" style="text;align=left;verticalAlign=top;spacingLeft=4;spacingRight=4;overflow=hidden;rotatable=0;points=[[0,0.5],[1,0.5]];portConstraint=eastwest;rounded=0;" parent="2jos74vlzQx_kcMCBI00-34" vertex="1">
          <mxGeometry y="26" width="160" height="26" as="geometry" />
        </mxCell>
        <mxCell id="2jos74vlzQx_kcMCBI00-36" value="" style="endArrow=none;html=1;rounded=0;" parent="2jos74vlzQx_kcMCBI00-34" edge="1">
          <mxGeometry width="50" height="50" relative="1" as="geometry">
            <mxPoint x="2" y="51" as="sourcePoint" />
            <mxPoint x="92" y="51" as="targetPoint" />
          </mxGeometry>
        </mxCell>
        <mxCell id="2jos74vlzQx_kcMCBI00-37" value="First_Name" style="text;align=left;verticalAlign=top;spacingLeft=4;spacingRight=4;overflow=hidden;rotatable=0;points=[[0,0.5],[1,0.5]];portConstraint=eastwest;rounded=0;shadow=0;html=0;" parent="2jos74vlzQx_kcMCBI00-34" vertex="1">
          <mxGeometry y="52" width="160" height="26" as="geometry" />
        </mxCell>
        <mxCell id="2jos74vlzQx_kcMCBI00-38" value="Last_Name" style="text;align=left;verticalAlign=top;spacingLeft=4;spacingRight=4;overflow=hidden;rotatable=0;points=[[0,0.5],[1,0.5]];portConstraint=eastwest;rounded=0;shadow=0;html=0;" parent="2jos74vlzQx_kcMCBI00-34" vertex="1">
          <mxGeometry y="78" width="160" height="26" as="geometry" />
        </mxCell>
        <mxCell id="2jos74vlzQx_kcMCBI00-39" value="Date_Of_Birth" style="text;align=left;verticalAlign=top;spacingLeft=4;spacingRight=4;overflow=hidden;rotatable=0;points=[[0,0.5],[1,0.5]];portConstraint=eastwest;rounded=0;shadow=0;html=0;" parent="2jos74vlzQx_kcMCBI00-34" vertex="1">
          <mxGeometry y="104" width="160" height="26" as="geometry" />
        </mxCell>
        <mxCell id="2jos74vlzQx_kcMCBI00-40" value="Gender&#xa;" style="text;align=left;verticalAlign=top;spacingLeft=4;spacingRight=4;overflow=hidden;rotatable=0;points=[[0,0.5],[1,0.5]];portConstraint=eastwest;rounded=0;shadow=0;html=0;" parent="2jos74vlzQx_kcMCBI00-34" vertex="1">
          <mxGeometry y="130" width="160" height="26" as="geometry" />
        </mxCell>
        <mxCell id="2jos74vlzQx_kcMCBI00-41" value="Email" style="text;align=left;verticalAlign=top;spacingLeft=4;spacingRight=4;overflow=hidden;rotatable=0;points=[[0,0.5],[1,0.5]];portConstraint=eastwest;rounded=0;" parent="2jos74vlzQx_kcMCBI00-34" vertex="1">
          <mxGeometry y="156" width="160" height="26" as="geometry" />
        </mxCell>
        <mxCell id="2jos74vlzQx_kcMCBI00-42" value="Phone" style="text;align=left;verticalAlign=top;spacingLeft=4;spacingRight=4;overflow=hidden;rotatable=0;points=[[0,0.5],[1,0.5]];portConstraint=eastwest;rounded=0;" parent="2jos74vlzQx_kcMCBI00-34" vertex="1">
          <mxGeometry y="182" width="160" height="28" as="geometry" />
        </mxCell>
        <mxCell id="2jos74vlzQx_kcMCBI00-43" value="&amp;nbsp;Address" style="text;html=1;align=left;verticalAlign=top;resizable=0;points=[];autosize=1;strokeColor=none;fillColor=none;rounded=0;" parent="2jos74vlzQx_kcMCBI00-34" vertex="1">
          <mxGeometry y="210" width="160" height="30" as="geometry" />
        </mxCell>
        <mxCell id="2jos74vlzQx_kcMCBI00-44" value="&amp;nbsp;Enrollment_Date" style="text;html=1;align=left;verticalAlign=top;resizable=0;points=[];autosize=1;strokeColor=none;fillColor=none;rounded=0;" parent="2jos74vlzQx_kcMCBI00-34" vertex="1">
          <mxGeometry y="240" width="160" height="30" as="geometry" />
        </mxCell>
        <mxCell id="CVn_4utd9kQLh8Rls4Vv-15" style="edgeStyle=orthogonalEdgeStyle;rounded=0;orthogonalLoop=1;jettySize=auto;html=1;exitX=0;exitY=0.75;exitDx=0;exitDy=0;endArrow=none;endFill=0;startArrow=ERoneToMany;startFill=0;" parent="1" source="2jos74vlzQx_kcMCBI00-45" edge="1">
          <mxGeometry relative="1" as="geometry">
            <mxPoint x="550" y="793.4545454545455" as="targetPoint" />
            <Array as="points">
              <mxPoint x="1160" y="793" />
              <mxPoint x="1160" y="810" />
              <mxPoint x="550" y="810" />
            </Array>
          </mxGeometry>
        </mxCell>
        <mxCell id="CVn_4utd9kQLh8Rls4Vv-16" value="have" style="edgeLabel;html=1;align=center;verticalAlign=middle;resizable=0;points=[];" parent="CVn_4utd9kQLh8Rls4Vv-15" vertex="1" connectable="0">
          <mxGeometry x="0.0738" y="-2" relative="1" as="geometry">
            <mxPoint as="offset" />
          </mxGeometry>
        </mxCell>
        <mxCell id="2jos74vlzQx_kcMCBI00-45" value="COURSE" style="swimlane;fontStyle=1;align=center;verticalAlign=top;childLayout=stackLayout;horizontal=1;startSize=26;horizontalStack=0;resizeParent=1;resizeLast=0;collapsible=1;marginBottom=0;rounded=0;shadow=0;strokeWidth=1;fillColor=#fff2cc;strokeColor=#d6b656;" parent="1" vertex="1">
          <mxGeometry x="1170" y="660" width="160" height="178" as="geometry">
            <mxRectangle x="550" y="140" width="160" height="26" as="alternateBounds" />
          </mxGeometry>
        </mxCell>
        <mxCell id="2jos74vlzQx_kcMCBI00-46" value="CourseID" style="text;align=left;verticalAlign=top;spacingLeft=4;spacingRight=4;overflow=hidden;rotatable=0;points=[[0,0.5],[1,0.5]];portConstraint=eastwest;rounded=0;" parent="2jos74vlzQx_kcMCBI00-45" vertex="1">
          <mxGeometry y="26" width="160" height="34" as="geometry" />
        </mxCell>
        <mxCell id="2jos74vlzQx_kcMCBI00-47" value="" style="endArrow=none;html=1;rounded=0;" parent="2jos74vlzQx_kcMCBI00-45" edge="1">
          <mxGeometry width="50" height="50" relative="1" as="geometry">
            <mxPoint x="2" y="51" as="sourcePoint" />
            <mxPoint x="92" y="51" as="targetPoint" />
          </mxGeometry>
        </mxCell>
        <mxCell id="2jos74vlzQx_kcMCBI00-48" value="Course_Name" style="text;align=left;verticalAlign=top;spacingLeft=4;spacingRight=4;overflow=hidden;rotatable=0;points=[[0,0.5],[1,0.5]];portConstraint=eastwest;rounded=0;shadow=0;html=0;" parent="2jos74vlzQx_kcMCBI00-45" vertex="1">
          <mxGeometry y="60" width="160" height="28" as="geometry" />
        </mxCell>
        <mxCell id="2jos74vlzQx_kcMCBI00-49" value="&amp;nbsp;Number_Of_Credits" style="text;html=1;align=left;verticalAlign=top;resizable=0;points=[];autosize=1;strokeColor=none;fillColor=none;rounded=0;" parent="2jos74vlzQx_kcMCBI00-45" vertex="1">
          <mxGeometry y="88" width="160" height="30" as="geometry" />
        </mxCell>
        <mxCell id="2jos74vlzQx_kcMCBI00-50" value="&amp;nbsp;Course_Type" style="text;html=1;align=left;verticalAlign=top;resizable=0;points=[];autosize=1;strokeColor=none;fillColor=none;rounded=0;" parent="2jos74vlzQx_kcMCBI00-45" vertex="1">
          <mxGeometry y="118" width="160" height="30" as="geometry" />
        </mxCell>
        <mxCell id="CVn_4utd9kQLh8Rls4Vv-1" value="Course_Description" style="text;html=1;align=left;verticalAlign=top;resizable=0;points=[];autosize=1;strokeColor=none;fillColor=none;rounded=0;" parent="2jos74vlzQx_kcMCBI00-45" vertex="1">
          <mxGeometry y="148" width="160" height="30" as="geometry" />
        </mxCell>
        <mxCell id="2jos74vlzQx_kcMCBI00-51" value="" style="endArrow=ERzeroToMany;html=1;rounded=0;edgeStyle=orthogonalEdgeStyle;exitX=1;exitY=0.5;exitDx=0;exitDy=0;startArrow=ERzeroToMany;startFill=0;endFill=0;" parent="2jos74vlzQx_kcMCBI00-45" source="2jos74vlzQx_kcMCBI00-48" edge="1">
          <mxGeometry width="50" height="50" relative="1" as="geometry">
            <mxPoint x="230" y="80" as="sourcePoint" />
            <mxPoint x="60" as="targetPoint" />
            <Array as="points">
              <mxPoint x="200" y="74" />
              <mxPoint x="200" y="-50" />
              <mxPoint x="60" y="-50" />
            </Array>
          </mxGeometry>
        </mxCell>
        <mxCell id="iBV01vkhTkMkZKRMCeMt-41" value="has prereuisites" style="edgeLabel;html=1;align=center;verticalAlign=middle;resizable=0;points=[];rounded=0;" parent="2jos74vlzQx_kcMCBI00-51" vertex="1" connectable="0">
          <mxGeometry x="0.2416" y="-1" relative="1" as="geometry">
            <mxPoint as="offset" />
          </mxGeometry>
        </mxCell>
        <mxCell id="2jos74vlzQx_kcMCBI00-146" style="edgeStyle=orthogonalEdgeStyle;rounded=0;orthogonalLoop=1;jettySize=auto;html=1;entryX=0.438;entryY=-0.005;entryDx=0;entryDy=0;entryPerimeter=0;startArrow=ERmandOne;startFill=0;endArrow=ERoneToMany;endFill=0;" parent="1" source="2jos74vlzQx_kcMCBI00-52" target="2jos74vlzQx_kcMCBI00-61" edge="1">
          <mxGeometry relative="1" as="geometry" />
        </mxCell>
        <mxCell id="iBV01vkhTkMkZKRMCeMt-49" value="maps with" style="edgeLabel;html=1;align=center;verticalAlign=middle;resizable=0;points=[];rounded=0;" parent="2jos74vlzQx_kcMCBI00-146" vertex="1" connectable="0">
          <mxGeometry x="-0.1391" y="1" relative="1" as="geometry">
            <mxPoint as="offset" />
          </mxGeometry>
        </mxCell>
        <mxCell id="2jos74vlzQx_kcMCBI00-52" value="CLO" style="swimlane;fontStyle=1;align=center;verticalAlign=top;childLayout=stackLayout;horizontal=1;startSize=26;horizontalStack=0;resizeParent=1;resizeLast=0;collapsible=1;marginBottom=0;rounded=0;shadow=0;strokeWidth=1;fillColor=#fff2cc;strokeColor=#d6b656;" parent="1" vertex="1">
          <mxGeometry x="940" y="660" width="160" height="80" as="geometry">
            <mxRectangle x="550" y="140" width="160" height="26" as="alternateBounds" />
          </mxGeometry>
        </mxCell>
        <mxCell id="2jos74vlzQx_kcMCBI00-53" value="CLOID" style="text;align=left;verticalAlign=top;spacingLeft=4;spacingRight=4;overflow=hidden;rotatable=0;points=[[0,0.5],[1,0.5]];portConstraint=eastwest;rounded=0;" parent="2jos74vlzQx_kcMCBI00-52" vertex="1">
          <mxGeometry y="26" width="160" height="26" as="geometry" />
        </mxCell>
        <mxCell id="2jos74vlzQx_kcMCBI00-54" value="" style="endArrow=none;html=1;rounded=0;" parent="2jos74vlzQx_kcMCBI00-52" edge="1">
          <mxGeometry width="50" height="50" relative="1" as="geometry">
            <mxPoint x="2" y="51" as="sourcePoint" />
            <mxPoint x="92" y="51" as="targetPoint" />
          </mxGeometry>
        </mxCell>
        <mxCell id="2jos74vlzQx_kcMCBI00-55" value="CLO_Num" style="text;align=left;verticalAlign=top;spacingLeft=4;spacingRight=4;overflow=hidden;rotatable=0;points=[[0,0.5],[1,0.5]];portConstraint=eastwest;rounded=0;shadow=0;html=0;" parent="2jos74vlzQx_kcMCBI00-52" vertex="1">
          <mxGeometry y="52" width="160" height="28" as="geometry" />
        </mxCell>
        <mxCell id="2jos74vlzQx_kcMCBI00-56" value="PLO" style="swimlane;fontStyle=1;align=center;verticalAlign=top;childLayout=stackLayout;horizontal=1;startSize=26;horizontalStack=0;resizeParent=1;resizeLast=0;collapsible=1;marginBottom=0;rounded=0;shadow=0;strokeWidth=1;fillColor=#fff2cc;strokeColor=#d6b656;" parent="1" vertex="1">
          <mxGeometry x="700" y="660" width="160" height="120" as="geometry">
            <mxRectangle x="550" y="140" width="160" height="26" as="alternateBounds" />
          </mxGeometry>
        </mxCell>
        <mxCell id="2jos74vlzQx_kcMCBI00-57" value="PLOID" style="text;align=left;verticalAlign=top;spacingLeft=4;spacingRight=4;overflow=hidden;rotatable=0;points=[[0,0.5],[1,0.5]];portConstraint=eastwest;rounded=0;" parent="2jos74vlzQx_kcMCBI00-56" vertex="1">
          <mxGeometry y="26" width="160" height="26" as="geometry" />
        </mxCell>
        <mxCell id="2jos74vlzQx_kcMCBI00-58" value="" style="endArrow=none;html=1;rounded=0;" parent="2jos74vlzQx_kcMCBI00-56" edge="1">
          <mxGeometry width="50" height="50" relative="1" as="geometry">
            <mxPoint x="2" y="51" as="sourcePoint" />
            <mxPoint x="92" y="51" as="targetPoint" />
          </mxGeometry>
        </mxCell>
        <mxCell id="2jos74vlzQx_kcMCBI00-59" value="PLO_Num" style="text;align=left;verticalAlign=top;spacingLeft=4;spacingRight=4;overflow=hidden;rotatable=0;points=[[0,0.5],[1,0.5]];portConstraint=eastwest;rounded=0;shadow=0;html=0;" parent="2jos74vlzQx_kcMCBI00-56" vertex="1">
          <mxGeometry y="52" width="160" height="28" as="geometry" />
        </mxCell>
        <mxCell id="2jos74vlzQx_kcMCBI00-60" value="&amp;nbsp;Details" style="text;html=1;align=left;verticalAlign=top;resizable=0;points=[];autosize=1;strokeColor=none;fillColor=none;rounded=0;" parent="2jos74vlzQx_kcMCBI00-56" vertex="1">
          <mxGeometry y="80" width="160" height="30" as="geometry" />
        </mxCell>
        <mxCell id="2jos74vlzQx_kcMCBI00-61" value="QUESTION" style="swimlane;fontStyle=1;align=center;verticalAlign=top;childLayout=stackLayout;horizontal=1;startSize=26;horizontalStack=0;resizeParent=1;resizeLast=0;collapsible=1;marginBottom=0;rounded=0;shadow=0;strokeWidth=1;fillColor=#fff2cc;strokeColor=#d6b656;" parent="1" vertex="1">
          <mxGeometry x="950" y="870" width="160" height="194" as="geometry">
            <mxRectangle x="550" y="140" width="160" height="26" as="alternateBounds" />
          </mxGeometry>
        </mxCell>
        <mxCell id="2jos74vlzQx_kcMCBI00-62" value="QuestionID" style="text;align=left;verticalAlign=top;spacingLeft=4;spacingRight=4;overflow=hidden;rotatable=0;points=[[0,0.5],[1,0.5]];portConstraint=eastwest;rounded=0;" parent="2jos74vlzQx_kcMCBI00-61" vertex="1">
          <mxGeometry y="26" width="160" height="26" as="geometry" />
        </mxCell>
        <mxCell id="2jos74vlzQx_kcMCBI00-63" value="" style="endArrow=none;html=1;rounded=0;" parent="2jos74vlzQx_kcMCBI00-61" edge="1">
          <mxGeometry width="50" height="50" relative="1" as="geometry">
            <mxPoint x="2" y="51" as="sourcePoint" />
            <mxPoint x="92" y="51" as="targetPoint" />
          </mxGeometry>
        </mxCell>
        <mxCell id="2jos74vlzQx_kcMCBI00-64" value="Assessment_Name" style="text;align=left;verticalAlign=top;spacingLeft=4;spacingRight=4;overflow=hidden;rotatable=0;points=[[0,0.5],[1,0.5]];portConstraint=eastwest;rounded=0;shadow=0;html=0;" parent="2jos74vlzQx_kcMCBI00-61" vertex="1">
          <mxGeometry y="52" width="160" height="26" as="geometry" />
        </mxCell>
        <mxCell id="2jos74vlzQx_kcMCBI00-65" value="Total_Marks" style="text;align=left;verticalAlign=top;spacingLeft=4;spacingRight=4;overflow=hidden;rotatable=0;points=[[0,0.5],[1,0.5]];portConstraint=eastwest;rounded=0;shadow=0;html=0;" parent="2jos74vlzQx_kcMCBI00-61" vertex="1">
          <mxGeometry y="78" width="160" height="26" as="geometry" />
        </mxCell>
        <mxCell id="2jos74vlzQx_kcMCBI00-66" value="Weight" style="text;align=left;verticalAlign=top;spacingLeft=4;spacingRight=4;overflow=hidden;rotatable=0;points=[[0,0.5],[1,0.5]];portConstraint=eastwest;rounded=0;" parent="2jos74vlzQx_kcMCBI00-61" vertex="1">
          <mxGeometry y="104" width="160" height="28" as="geometry" />
        </mxCell>
        <mxCell id="2jos74vlzQx_kcMCBI00-67" value="QuestionNum" style="text;align=left;verticalAlign=top;spacingLeft=4;spacingRight=4;overflow=hidden;rotatable=0;points=[[0,0.5],[1,0.5]];portConstraint=eastwest;rounded=0;" parent="2jos74vlzQx_kcMCBI00-61" vertex="1">
          <mxGeometry y="132" width="160" height="26" as="geometry" />
        </mxCell>
        <mxCell id="2jos74vlzQx_kcMCBI00-68" value="Question" style="text;align=left;verticalAlign=top;spacingLeft=4;spacingRight=4;overflow=hidden;rotatable=0;points=[[0,0.5],[1,0.5]];portConstraint=eastwest;rounded=0;" parent="2jos74vlzQx_kcMCBI00-61" vertex="1">
          <mxGeometry y="158" width="160" height="30" as="geometry" />
        </mxCell>
        <mxCell id="2jos74vlzQx_kcMCBI00-69" value="EVALUATION" style="swimlane;fontStyle=1;align=center;verticalAlign=top;childLayout=stackLayout;horizontal=1;startSize=26;horizontalStack=0;resizeParent=1;resizeLast=0;collapsible=1;marginBottom=0;rounded=0;shadow=0;strokeWidth=1;fillColor=#fff2cc;strokeColor=#d6b656;" parent="1" vertex="1">
          <mxGeometry x="1180" y="1010" width="160" height="80" as="geometry">
            <mxRectangle x="550" y="140" width="160" height="26" as="alternateBounds" />
          </mxGeometry>
        </mxCell>
        <mxCell id="2jos74vlzQx_kcMCBI00-70" value="EvaluationID" style="text;align=left;verticalAlign=top;spacingLeft=4;spacingRight=4;overflow=hidden;rotatable=0;points=[[0,0.5],[1,0.5]];portConstraint=eastwest;rounded=0;" parent="2jos74vlzQx_kcMCBI00-69" vertex="1">
          <mxGeometry y="26" width="160" height="26" as="geometry" />
        </mxCell>
        <mxCell id="2jos74vlzQx_kcMCBI00-71" value="" style="endArrow=none;html=1;rounded=0;" parent="2jos74vlzQx_kcMCBI00-69" edge="1">
          <mxGeometry width="50" height="50" relative="1" as="geometry">
            <mxPoint x="2" y="51" as="sourcePoint" />
            <mxPoint x="92" y="51" as="targetPoint" />
          </mxGeometry>
        </mxCell>
        <mxCell id="2jos74vlzQx_kcMCBI00-72" value="Obtained_Marks" style="text;align=left;verticalAlign=top;spacingLeft=4;spacingRight=4;overflow=hidden;rotatable=0;points=[[0,0.5],[1,0.5]];portConstraint=eastwest;rounded=0;shadow=0;html=0;" parent="2jos74vlzQx_kcMCBI00-69" vertex="1">
          <mxGeometry y="52" width="160" height="28" as="geometry" />
        </mxCell>
        <mxCell id="Thtl3EoFDPrK24X_LuAw-17" style="edgeStyle=orthogonalEdgeStyle;rounded=0;orthogonalLoop=1;jettySize=auto;html=1;strokeColor=#000000;fontColor=#393C56;startArrow=ERmandOne;startFill=0;endArrow=ERoneToMany;endFill=0;fillColor=#F2CC8F;" parent="1" source="2jos74vlzQx_kcMCBI00-73" edge="1">
          <mxGeometry relative="1" as="geometry">
            <mxPoint x="520" y="1030" as="targetPoint" />
            <Array as="points">
              <mxPoint x="920" y="1100" />
              <mxPoint x="920" y="1030" />
              <mxPoint x="520" y="1030" />
            </Array>
          </mxGeometry>
        </mxCell>
        <mxCell id="Thtl3EoFDPrK24X_LuAw-18" value="pass backlog data" style="edgeLabel;html=1;align=center;verticalAlign=middle;resizable=0;points=[];fontColor=#393C56;" parent="Thtl3EoFDPrK24X_LuAw-17" vertex="1" connectable="0">
          <mxGeometry x="0.4236" y="1" relative="1" as="geometry">
            <mxPoint as="offset" />
          </mxGeometry>
        </mxCell>
        <mxCell id="2jos74vlzQx_kcMCBI00-73" value="REGISTRATION" style="swimlane;fontStyle=1;align=center;verticalAlign=top;childLayout=stackLayout;horizontal=1;startSize=26;horizontalStack=0;resizeParent=1;resizeLast=0;collapsible=1;marginBottom=0;rounded=0;shadow=0;strokeWidth=1;fillColor=#fff2cc;strokeColor=#d6b656;" parent="1" vertex="1">
          <mxGeometry x="1450" y="1010" width="160" height="111" as="geometry">
            <mxRectangle x="550" y="140" width="160" height="26" as="alternateBounds" />
          </mxGeometry>
        </mxCell>
        <mxCell id="2jos74vlzQx_kcMCBI00-74" value="Â RegistrationID" style="text;align=left;verticalAlign=top;spacingLeft=4;spacingRight=4;overflow=hidden;rotatable=0;points=[[0,0.5],[1,0.5]];portConstraint=eastwest;rounded=0;" parent="2jos74vlzQx_kcMCBI00-73" vertex="1">
          <mxGeometry y="26" width="160" height="26" as="geometry" />
        </mxCell>
        <mxCell id="2jos74vlzQx_kcMCBI00-75" value="" style="endArrow=none;html=1;rounded=0;" parent="2jos74vlzQx_kcMCBI00-73" edge="1">
          <mxGeometry width="50" height="50" relative="1" as="geometry">
            <mxPoint x="2" y="51" as="sourcePoint" />
            <mxPoint x="92" y="51" as="targetPoint" />
          </mxGeometry>
        </mxCell>
        <mxCell id="2jos74vlzQx_kcMCBI00-76" value="Semester" style="text;align=left;verticalAlign=top;spacingLeft=4;spacingRight=4;overflow=hidden;rotatable=0;points=[[0,0.5],[1,0.5]];portConstraint=eastwest;rounded=0;shadow=0;html=0;" parent="2jos74vlzQx_kcMCBI00-73" vertex="1">
          <mxGeometry y="52" width="160" height="28" as="geometry" />
        </mxCell>
        <mxCell id="2jos74vlzQx_kcMCBI00-77" value="&amp;nbsp;Year" style="text;html=1;align=left;verticalAlign=top;resizable=0;points=[];autosize=1;strokeColor=none;fillColor=none;rounded=0;" parent="2jos74vlzQx_kcMCBI00-73" vertex="1">
          <mxGeometry y="80" width="160" height="30" as="geometry" />
        </mxCell>
        <mxCell id="iBV01vkhTkMkZKRMCeMt-40" style="edgeStyle=orthogonalEdgeStyle;rounded=0;orthogonalLoop=1;jettySize=auto;html=1;exitX=0.5;exitY=0;exitDx=0;exitDy=0;entryX=1;entryY=0.096;entryDx=0;entryDy=0;startArrow=ERoneToMany;startFill=0;endArrow=ERoneToMany;endFill=0;entryPerimeter=0;" parent="1" source="2jos74vlzQx_kcMCBI00-78" target="2jos74vlzQx_kcMCBI00-13" edge="1">
          <mxGeometry relative="1" as="geometry" />
        </mxCell>
        <mxCell id="iBV01vkhTkMkZKRMCeMt-46" value="adds" style="edgeLabel;html=1;align=center;verticalAlign=middle;resizable=0;points=[];rounded=0;" parent="iBV01vkhTkMkZKRMCeMt-40" vertex="1" connectable="0">
          <mxGeometry x="0.1024" y="-1" relative="1" as="geometry">
            <mxPoint x="-1" as="offset" />
          </mxGeometry>
        </mxCell>
        <mxCell id="2jos74vlzQx_kcMCBI00-78" value="COURSE OUTLNE" style="swimlane;fontStyle=1;align=center;verticalAlign=top;childLayout=stackLayout;horizontal=1;startSize=26;horizontalStack=0;resizeParent=1;resizeLast=0;collapsible=1;marginBottom=0;rounded=0;shadow=0;strokeWidth=1;fillColor=#fff2cc;strokeColor=#d6b656;" parent="1" vertex="1">
          <mxGeometry x="1700" y="660" width="275" height="294" as="geometry">
            <mxRectangle x="550" y="140" width="160" height="26" as="alternateBounds" />
          </mxGeometry>
        </mxCell>
        <mxCell id="2jos74vlzQx_kcMCBI00-79" value="CouseOutlneID" style="text;align=left;verticalAlign=top;spacingLeft=4;spacingRight=4;overflow=hidden;rotatable=0;points=[[0,0.5],[1,0.5]];portConstraint=eastwest;rounded=0;" parent="2jos74vlzQx_kcMCBI00-78" vertex="1">
          <mxGeometry y="26" width="275" height="26" as="geometry" />
        </mxCell>
        <mxCell id="2jos74vlzQx_kcMCBI00-80" value="" style="endArrow=none;html=1;rounded=0;" parent="2jos74vlzQx_kcMCBI00-78" edge="1">
          <mxGeometry width="50" height="50" relative="1" as="geometry">
            <mxPoint x="2" y="51" as="sourcePoint" />
            <mxPoint x="92" y="51" as="targetPoint" />
          </mxGeometry>
        </mxCell>
        <mxCell id="2jos74vlzQx_kcMCBI00-82" value="&amp;nbsp;{Course_Objective(Domain_and_level)}" style="text;html=1;align=left;verticalAlign=top;resizable=0;points=[];autosize=1;strokeColor=none;fillColor=none;rounded=0;" parent="2jos74vlzQx_kcMCBI00-78" vertex="1">
          <mxGeometry y="52" width="275" height="26" as="geometry" />
        </mxCell>
        <mxCell id="2jos74vlzQx_kcMCBI00-83" value="&amp;nbsp;Assessment_and_MarksDistribution" style="text;html=1;align=left;verticalAlign=top;resizable=0;points=[];autosize=1;strokeColor=none;fillColor=none;rounded=0;" parent="2jos74vlzQx_kcMCBI00-78" vertex="1">
          <mxGeometry y="78" width="275" height="30" as="geometry" />
        </mxCell>
        <mxCell id="2jos74vlzQx_kcMCBI00-84" value="&amp;nbsp;Grade_Conversion_Scheme" style="text;html=1;align=left;verticalAlign=top;resizable=0;points=[];autosize=1;strokeColor=none;fillColor=none;rounded=0;" parent="2jos74vlzQx_kcMCBI00-78" vertex="1">
          <mxGeometry y="108" width="275" height="30" as="geometry" />
        </mxCell>
        <mxCell id="2jos74vlzQx_kcMCBI00-85" value="&amp;nbsp;Required_Textbook" style="text;html=1;align=left;verticalAlign=top;resizable=0;points=[];autosize=1;strokeColor=none;fillColor=none;rounded=0;" parent="2jos74vlzQx_kcMCBI00-78" vertex="1">
          <mxGeometry y="138" width="275" height="30" as="geometry" />
        </mxCell>
        <mxCell id="2jos74vlzQx_kcMCBI00-86" value="&amp;nbsp;Course_Policy" style="text;html=1;align=left;verticalAlign=top;resizable=0;points=[];autosize=1;strokeColor=none;fillColor=none;rounded=0;" parent="2jos74vlzQx_kcMCBI00-78" vertex="1">
          <mxGeometry y="168" width="275" height="30" as="geometry" />
        </mxCell>
        <mxCell id="2jos74vlzQx_kcMCBI00-87" value="&amp;nbsp;University_Regulation_And_Code_Of_Conduct" style="text;html=1;align=left;verticalAlign=middle;resizable=0;points=[];autosize=1;strokeColor=none;fillColor=none;rounded=0;" parent="2jos74vlzQx_kcMCBI00-78" vertex="1">
          <mxGeometry y="198" width="275" height="30" as="geometry" />
        </mxCell>
        <mxCell id="2jos74vlzQx_kcMCBI00-88" value="{Class_and_Schedule,Topics_and_Reading}" style="text;html=1;align=left;verticalAlign=middle;resizable=0;points=[];autosize=1;strokeColor=none;fillColor=none;rounded=0;" parent="2jos74vlzQx_kcMCBI00-78" vertex="1">
          <mxGeometry y="228" width="275" height="30" as="geometry" />
        </mxCell>
        <mxCell id="2jos74vlzQx_kcMCBI00-89" value="SECTION" style="swimlane;fontStyle=1;align=center;verticalAlign=top;childLayout=stackLayout;horizontal=1;startSize=26;horizontalStack=0;resizeParent=1;resizeLast=0;collapsible=1;marginBottom=0;rounded=0;shadow=0;strokeWidth=1;fillColor=#fff2cc;strokeColor=#d6b656;" parent="1" vertex="1">
          <mxGeometry x="1440" y="660" width="160" height="90" as="geometry">
            <mxRectangle x="550" y="140" width="160" height="26" as="alternateBounds" />
          </mxGeometry>
        </mxCell>
        <mxCell id="2jos74vlzQx_kcMCBI00-90" value="SectionID" style="text;align=left;verticalAlign=top;spacingLeft=4;spacingRight=4;overflow=hidden;rotatable=0;points=[[0,0.5],[1,0.5]];portConstraint=eastwest;rounded=0;" parent="2jos74vlzQx_kcMCBI00-89" vertex="1">
          <mxGeometry y="26" width="160" height="26" as="geometry" />
        </mxCell>
        <mxCell id="2jos74vlzQx_kcMCBI00-91" value="" style="endArrow=none;html=1;rounded=0;" parent="2jos74vlzQx_kcMCBI00-89" edge="1">
          <mxGeometry width="50" height="50" relative="1" as="geometry">
            <mxPoint x="2" y="51" as="sourcePoint" />
            <mxPoint x="92" y="51" as="targetPoint" />
          </mxGeometry>
        </mxCell>
        <mxCell id="2jos74vlzQx_kcMCBI00-92" value="Section_Num" style="text;align=left;verticalAlign=top;spacingLeft=4;spacingRight=4;overflow=hidden;rotatable=0;points=[[0,0.5],[1,0.5]];portConstraint=eastwest;rounded=0;shadow=0;html=0;" parent="2jos74vlzQx_kcMCBI00-89" vertex="1">
          <mxGeometry y="52" width="160" height="28" as="geometry" />
        </mxCell>
        <mxCell id="iBV01vkhTkMkZKRMCeMt-16" style="edgeStyle=orthogonalEdgeStyle;rounded=0;orthogonalLoop=1;jettySize=auto;html=1;exitX=0;exitY=1;exitDx=0;exitDy=0;entryX=1.016;entryY=0.176;entryDx=0;entryDy=0;entryPerimeter=0;endArrow=none;endFill=0;" parent="1" source="2jos74vlzQx_kcMCBI00-100" target="iBV01vkhTkMkZKRMCeMt-11" edge="1">
          <mxGeometry relative="1" as="geometry">
            <mxPoint x="-10" y="374" as="targetPoint" />
            <Array as="points">
              <mxPoint x="200" y="374" />
              <mxPoint x="200" y="268" />
            </Array>
          </mxGeometry>
        </mxCell>
        <mxCell id="iBV01vkhTkMkZKRMCeMt-17" value="&quot;D&quot;" style="edgeLabel;html=1;align=center;verticalAlign=middle;resizable=0;points=[];rounded=0;" parent="iBV01vkhTkMkZKRMCeMt-16" vertex="1" connectable="0">
          <mxGeometry x="0.4033" y="1" relative="1" as="geometry">
            <mxPoint as="offset" />
          </mxGeometry>
        </mxCell>
        <mxCell id="iBV01vkhTkMkZKRMCeMt-23" style="edgeStyle=orthogonalEdgeStyle;rounded=0;orthogonalLoop=1;jettySize=auto;html=1;exitX=1;exitY=1;exitDx=0;exitDy=0;entryX=-0.004;entryY=0.207;entryDx=0;entryDy=0;entryPerimeter=0;endArrow=none;endFill=0;" parent="1" source="2jos74vlzQx_kcMCBI00-100" target="iBV01vkhTkMkZKRMCeMt-18" edge="1">
          <mxGeometry relative="1" as="geometry" />
        </mxCell>
        <mxCell id="iBV01vkhTkMkZKRMCeMt-24" value="&quot;VC&quot;" style="edgeLabel;html=1;align=center;verticalAlign=middle;resizable=0;points=[];rounded=0;" parent="iBV01vkhTkMkZKRMCeMt-23" vertex="1" connectable="0">
          <mxGeometry x="0.6268" y="1" relative="1" as="geometry">
            <mxPoint as="offset" />
          </mxGeometry>
        </mxCell>
        <mxCell id="2jos74vlzQx_kcMCBI00-100" value="d" style="ellipse;whiteSpace=wrap;html=1;aspect=fixed;rounded=0;" parent="1" vertex="1">
          <mxGeometry x="290" y="340" width="40" height="40" as="geometry" />
        </mxCell>
        <mxCell id="2jos74vlzQx_kcMCBI00-109" value="" style="endArrow=none;html=1;rounded=0;strokeColor=default;exitX=0.5;exitY=0;exitDx=0;exitDy=0;entryX=0.493;entryY=1.108;entryDx=0;entryDy=0;entryPerimeter=0;" parent="1" source="2jos74vlzQx_kcMCBI00-100" target="2jos74vlzQx_kcMCBI00-11" edge="1">
          <mxGeometry width="50" height="50" relative="1" as="geometry">
            <mxPoint x="220" y="330" as="sourcePoint" />
            <mxPoint x="310" y="290" as="targetPoint" />
            <Array as="points">
              <mxPoint x="310" y="320" />
            </Array>
          </mxGeometry>
        </mxCell>
        <mxCell id="2jos74vlzQx_kcMCBI00-110" value="" style="endArrow=none;html=1;rounded=0;strokeColor=default;exitX=1;exitY=0.5;exitDx=0;exitDy=0;entryX=0.563;entryY=0;entryDx=0;entryDy=0;entryPerimeter=0;" parent="1" source="2jos74vlzQx_kcMCBI00-100" target="2jos74vlzQx_kcMCBI00-13" edge="1">
          <mxGeometry width="50" height="50" relative="1" as="geometry">
            <mxPoint x="445" y="390" as="sourcePoint" />
            <mxPoint x="530" y="360" as="targetPoint" />
            <Array as="points">
              <mxPoint x="430" y="360" />
            </Array>
          </mxGeometry>
        </mxCell>
        <mxCell id="iBV01vkhTkMkZKRMCeMt-9" value="&quot;F&quot;" style="edgeLabel;html=1;align=center;verticalAlign=middle;resizable=0;points=[];rounded=0;" parent="2jos74vlzQx_kcMCBI00-110" vertex="1" connectable="0">
          <mxGeometry x="-0.2238" relative="1" as="geometry">
            <mxPoint as="offset" />
          </mxGeometry>
        </mxCell>
        <mxCell id="2jos74vlzQx_kcMCBI00-111" value="" style="endArrow=none;html=1;rounded=0;strokeColor=default;entryX=0;entryY=0.5;entryDx=0;entryDy=0;exitX=0.563;exitY=0;exitDx=0;exitDy=0;exitPerimeter=0;" parent="1" source="2jos74vlzQx_kcMCBI00-18" target="2jos74vlzQx_kcMCBI00-100" edge="1">
          <mxGeometry width="50" height="50" relative="1" as="geometry">
            <mxPoint x="130" y="380" as="sourcePoint" />
            <mxPoint x="180" y="330" as="targetPoint" />
            <Array as="points">
              <mxPoint x="160" y="360" />
            </Array>
          </mxGeometry>
        </mxCell>
        <mxCell id="iBV01vkhTkMkZKRMCeMt-8" value="&quot;DH&quot;" style="edgeLabel;html=1;align=center;verticalAlign=middle;resizable=0;points=[];rounded=0;" parent="2jos74vlzQx_kcMCBI00-111" vertex="1" connectable="0">
          <mxGeometry x="-0.0626" y="-1" relative="1" as="geometry">
            <mxPoint as="offset" />
          </mxGeometry>
        </mxCell>
        <mxCell id="2jos74vlzQx_kcMCBI00-117" value="Employee type" style="text;html=1;strokeColor=none;fillColor=none;align=center;verticalAlign=middle;whiteSpace=wrap;rounded=0;" parent="1" vertex="1">
          <mxGeometry x="265" y="390" width="90" height="30" as="geometry" />
        </mxCell>
        <mxCell id="2jos74vlzQx_kcMCBI00-133" style="edgeStyle=orthogonalEdgeStyle;rounded=0;orthogonalLoop=1;jettySize=auto;html=1;exitX=0;exitY=0.5;exitDx=0;exitDy=0;entryX=0.813;entryY=-0.024;entryDx=0;entryDy=0;entryPerimeter=0;startArrow=ERoneToMany;startFill=0;endArrow=ERmandOne;endFill=0;" parent="1" source="2jos74vlzQx_kcMCBI00-16" target="2jos74vlzQx_kcMCBI00-26" edge="1">
          <mxGeometry relative="1" as="geometry" />
        </mxCell>
        <mxCell id="iBV01vkhTkMkZKRMCeMt-33" value="employes" style="edgeLabel;html=1;align=center;verticalAlign=middle;resizable=0;points=[];rounded=0;" parent="2jos74vlzQx_kcMCBI00-133" vertex="1" connectable="0">
          <mxGeometry x="0.006" y="2" relative="1" as="geometry">
            <mxPoint as="offset" />
          </mxGeometry>
        </mxCell>
        <mxCell id="2jos74vlzQx_kcMCBI00-135" style="edgeStyle=orthogonalEdgeStyle;rounded=0;orthogonalLoop=1;jettySize=auto;html=1;exitX=-0.004;exitY=0.207;exitDx=0;exitDy=0;startArrow=ERmandOne;startFill=0;endArrow=ERmandOne;endFill=0;entryX=0.213;entryY=1.033;entryDx=0;entryDy=0;entryPerimeter=0;exitPerimeter=0;" parent="1" source="2jos74vlzQx_kcMCBI00-26" target="2jos74vlzQx_kcMCBI00-24" edge="1">
          <mxGeometry relative="1" as="geometry">
            <mxPoint x="104" y="610" as="targetPoint" />
            <mxPoint x="80" y="699" as="sourcePoint" />
          </mxGeometry>
        </mxCell>
        <mxCell id="iBV01vkhTkMkZKRMCeMt-7" value="runs by" style="edgeLabel;html=1;align=center;verticalAlign=middle;resizable=0;points=[];rounded=0;" parent="2jos74vlzQx_kcMCBI00-135" vertex="1" connectable="0">
          <mxGeometry x="0.2602" relative="1" as="geometry">
            <mxPoint as="offset" />
          </mxGeometry>
        </mxCell>
        <mxCell id="2jos74vlzQx_kcMCBI00-136" style="edgeStyle=orthogonalEdgeStyle;rounded=0;orthogonalLoop=1;jettySize=auto;html=1;exitX=0;exitY=0.5;exitDx=0;exitDy=0;entryX=1;entryY=0.5;entryDx=0;entryDy=0;startArrow=ERoneToMany;startFill=0;endArrow=ERmandOne;endFill=0;" parent="1" source="2jos74vlzQx_kcMCBI00-31" target="2jos74vlzQx_kcMCBI00-27" edge="1">
          <mxGeometry relative="1" as="geometry" />
        </mxCell>
        <mxCell id="iBV01vkhTkMkZKRMCeMt-35" value="has" style="edgeLabel;html=1;align=center;verticalAlign=middle;resizable=0;points=[];rounded=0;" parent="2jos74vlzQx_kcMCBI00-136" vertex="1" connectable="0">
          <mxGeometry x="-0.2222" y="1" relative="1" as="geometry">
            <mxPoint as="offset" />
          </mxGeometry>
        </mxCell>
        <mxCell id="2jos74vlzQx_kcMCBI00-138" style="edgeStyle=orthogonalEdgeStyle;rounded=0;orthogonalLoop=1;jettySize=auto;html=1;exitX=1;exitY=0.5;exitDx=0;exitDy=0;entryX=0;entryY=0.5;entryDx=0;entryDy=0;startArrow=ERmandOne;startFill=0;endArrow=ERoneToMany;endFill=0;" parent="1" source="2jos74vlzQx_kcMCBI00-33" target="2jos74vlzQx_kcMCBI00-59" edge="1">
          <mxGeometry relative="1" as="geometry" />
        </mxCell>
        <mxCell id="iBV01vkhTkMkZKRMCeMt-47" value="have" style="edgeLabel;html=1;align=center;verticalAlign=middle;resizable=0;points=[];rounded=0;" parent="2jos74vlzQx_kcMCBI00-138" vertex="1" connectable="0">
          <mxGeometry x="-0.1098" relative="1" as="geometry">
            <mxPoint as="offset" />
          </mxGeometry>
        </mxCell>
        <mxCell id="2jos74vlzQx_kcMCBI00-139" style="edgeStyle=orthogonalEdgeStyle;rounded=0;orthogonalLoop=1;jettySize=auto;html=1;exitX=1;exitY=0.5;exitDx=0;exitDy=0;entryX=0;entryY=0.5;entryDx=0;entryDy=0;startArrow=ERmandOne;startFill=0;endArrow=ERoneToMany;endFill=0;" parent="1" source="2jos74vlzQx_kcMCBI00-59" target="2jos74vlzQx_kcMCBI00-55" edge="1">
          <mxGeometry relative="1" as="geometry" />
        </mxCell>
        <mxCell id="2jos74vlzQx_kcMCBI00-140" style="edgeStyle=orthogonalEdgeStyle;rounded=0;orthogonalLoop=1;jettySize=auto;html=1;exitX=1;exitY=0.5;exitDx=0;exitDy=0;entryX=-0.006;entryY=0.214;entryDx=0;entryDy=0;entryPerimeter=0;startArrow=ERoneToMany;startFill=0;endArrow=ERmandOne;endFill=0;" parent="1" source="2jos74vlzQx_kcMCBI00-55" target="2jos74vlzQx_kcMCBI00-48" edge="1">
          <mxGeometry relative="1" as="geometry" />
        </mxCell>
        <mxCell id="iBV01vkhTkMkZKRMCeMt-48" value="gives" style="edgeLabel;html=1;align=center;verticalAlign=middle;resizable=0;points=[];rounded=0;" parent="2jos74vlzQx_kcMCBI00-140" vertex="1" connectable="0">
          <mxGeometry x="-0.2468" relative="1" as="geometry">
            <mxPoint x="6" as="offset" />
          </mxGeometry>
        </mxCell>
        <mxCell id="2jos74vlzQx_kcMCBI00-145" style="edgeStyle=orthogonalEdgeStyle;rounded=0;orthogonalLoop=1;jettySize=auto;html=1;exitX=1;exitY=0.5;exitDx=0;exitDy=0;entryX=0.25;entryY=0;entryDx=0;entryDy=0;startArrow=ERmandOne;startFill=0;endArrow=ERzeroToMany;endFill=0;" parent="1" source="2jos74vlzQx_kcMCBI00-17" target="2jos74vlzQx_kcMCBI00-89" edge="1">
          <mxGeometry relative="1" as="geometry" />
        </mxCell>
        <mxCell id="iBV01vkhTkMkZKRMCeMt-38" value="teachers" style="edgeLabel;html=1;align=center;verticalAlign=middle;resizable=0;points=[];rounded=0;" parent="2jos74vlzQx_kcMCBI00-145" vertex="1" connectable="0">
          <mxGeometry x="-0.0382" y="1" relative="1" as="geometry">
            <mxPoint as="offset" />
          </mxGeometry>
        </mxCell>
        <mxCell id="2jos74vlzQx_kcMCBI00-147" style="edgeStyle=orthogonalEdgeStyle;rounded=0;orthogonalLoop=1;jettySize=auto;html=1;entryX=-0.012;entryY=0.269;entryDx=0;entryDy=0;entryPerimeter=0;startArrow=ERmandOne;startFill=0;endArrow=ERoneToMany;endFill=0;" parent="1" source="2jos74vlzQx_kcMCBI00-68" target="2jos74vlzQx_kcMCBI00-70" edge="1">
          <mxGeometry relative="1" as="geometry" />
        </mxCell>
        <mxCell id="iBV01vkhTkMkZKRMCeMt-51" value="have" style="edgeLabel;html=1;align=center;verticalAlign=middle;resizable=0;points=[];rounded=0;" parent="2jos74vlzQx_kcMCBI00-147" vertex="1" connectable="0">
          <mxGeometry x="0.2045" y="-1" relative="1" as="geometry">
            <mxPoint x="-6" as="offset" />
          </mxGeometry>
        </mxCell>
        <mxCell id="2jos74vlzQx_kcMCBI00-148" style="edgeStyle=orthogonalEdgeStyle;rounded=0;orthogonalLoop=1;jettySize=auto;html=1;entryX=-0.007;entryY=0.5;entryDx=0;entryDy=0;entryPerimeter=0;startArrow=ERmany;startFill=0;endArrow=ERone;endFill=0;" parent="1" target="2jos74vlzQx_kcMCBI00-82" edge="1">
          <mxGeometry relative="1" as="geometry">
            <mxPoint x="1600" y="755.0285714285715" as="sourcePoint" />
          </mxGeometry>
        </mxCell>
        <mxCell id="iBV01vkhTkMkZKRMCeMt-37" value="has" style="edgeLabel;html=1;align=center;verticalAlign=middle;resizable=0;points=[];rounded=0;" parent="2jos74vlzQx_kcMCBI00-148" vertex="1" connectable="0">
          <mxGeometry x="0.1726" y="1" relative="1" as="geometry">
            <mxPoint x="-7" as="offset" />
          </mxGeometry>
        </mxCell>
        <mxCell id="2jos74vlzQx_kcMCBI00-150" style="edgeStyle=orthogonalEdgeStyle;rounded=0;orthogonalLoop=1;jettySize=auto;html=1;entryX=0.438;entryY=0;entryDx=0;entryDy=0;entryPerimeter=0;startArrow=ERmandOne;startFill=0;endArrow=ERzeroToMany;endFill=0;exitX=0.5;exitY=1;exitDx=0;exitDy=0;" parent="1" source="2jos74vlzQx_kcMCBI00-89" target="2jos74vlzQx_kcMCBI00-73" edge="1">
          <mxGeometry relative="1" as="geometry">
            <mxPoint x="1520.0285714285715" y="800" as="sourcePoint" />
          </mxGeometry>
        </mxCell>
        <mxCell id="iBV01vkhTkMkZKRMCeMt-52" value="have" style="edgeLabel;html=1;align=center;verticalAlign=middle;resizable=0;points=[];rounded=0;" parent="2jos74vlzQx_kcMCBI00-150" vertex="1" connectable="0">
          <mxGeometry x="-0.0901" y="2" relative="1" as="geometry">
            <mxPoint as="offset" />
          </mxGeometry>
        </mxCell>
        <mxCell id="2jos74vlzQx_kcMCBI00-151" style="edgeStyle=orthogonalEdgeStyle;rounded=0;orthogonalLoop=1;jettySize=auto;html=1;exitX=1;exitY=0.5;exitDx=0;exitDy=0;entryX=0;entryY=0.5;entryDx=0;entryDy=0;startArrow=ERzeroToMany;startFill=0;endArrow=ERmandOne;endFill=0;" parent="1" source="2jos74vlzQx_kcMCBI00-70" target="2jos74vlzQx_kcMCBI00-74" edge="1">
          <mxGeometry relative="1" as="geometry" />
        </mxCell>
        <mxCell id="iBV01vkhTkMkZKRMCeMt-55" value="belongs to" style="edgeLabel;html=1;align=center;verticalAlign=middle;resizable=0;points=[];rounded=0;" parent="2jos74vlzQx_kcMCBI00-151" vertex="1" connectable="0">
          <mxGeometry x="0.1144" relative="1" as="geometry">
            <mxPoint as="offset" />
          </mxGeometry>
        </mxCell>
        <mxCell id="2jos74vlzQx_kcMCBI00-161" value="PLO_CLO &lt;br&gt;co-relation" style="rounded=0;whiteSpace=wrap;html=1;fillColor=#fff2cc;strokeColor=#d6b656;" parent="1" vertex="1">
          <mxGeometry x="840" y="580" width="120" height="60" as="geometry" />
        </mxCell>
        <mxCell id="2jos74vlzQx_kcMCBI00-162" value="" style="endArrow=none;dashed=1;html=1;strokeWidth=2;rounded=0;dashPattern=1 4;" parent="1" edge="1">
          <mxGeometry width="50" height="50" relative="1" as="geometry">
            <mxPoint x="899.29" y="719.5" as="sourcePoint" />
            <mxPoint x="899.5799999999999" y="640" as="targetPoint" />
            <Array as="points">
              <mxPoint x="899.29" y="689.5" />
            </Array>
          </mxGeometry>
        </mxCell>
        <mxCell id="2jos74vlzQx_kcMCBI00-170" style="edgeStyle=orthogonalEdgeStyle;rounded=0;orthogonalLoop=1;jettySize=auto;html=1;exitX=0.5;exitY=1;exitDx=0;exitDy=0;startArrow=ERzeroToMany;startFill=0;endArrow=ERmandOne;endFill=0;" parent="1" edge="1">
          <mxGeometry relative="1" as="geometry">
            <mxPoint x="1650" y="751.5" as="sourcePoint" />
            <mxPoint x="1650" y="751.5" as="targetPoint" />
          </mxGeometry>
        </mxCell>
        <mxCell id="XvXG2pJornhxVlaMCSaI-37" value="" style="edgeStyle=orthogonalEdgeStyle;rounded=0;orthogonalLoop=1;jettySize=auto;html=1;fontSize=12;endArrow=ERoneToMany;endFill=0;entryX=0.25;entryY=1;entryDx=0;entryDy=0;startArrow=ERmandOne;startFill=0;" parent="1" source="2jos74vlzQx_kcMCBI00-49" target="2jos74vlzQx_kcMCBI00-89" edge="1">
          <mxGeometry relative="1" as="geometry">
            <mxPoint x="1440" y="763.01" as="targetPoint" />
          </mxGeometry>
        </mxCell>
        <mxCell id="iBV01vkhTkMkZKRMCeMt-42" value="has" style="edgeLabel;html=1;align=center;verticalAlign=middle;resizable=0;points=[];rounded=0;" parent="XvXG2pJornhxVlaMCSaI-37" vertex="1" connectable="0">
          <mxGeometry x="0.185" y="3" relative="1" as="geometry">
            <mxPoint as="offset" />
          </mxGeometry>
        </mxCell>
        <mxCell id="iBV01vkhTkMkZKRMCeMt-11" value="DEAN" style="swimlane;fontStyle=1;align=center;verticalAlign=top;childLayout=stackLayout;horizontal=1;startSize=26;horizontalStack=0;resizeParent=1;resizeLast=0;collapsible=1;marginBottom=0;rounded=0;shadow=0;strokeWidth=1;fillColor=#fff2cc;strokeColor=#d6b656;" parent="1" vertex="1">
          <mxGeometry x="-80" y="250" width="160" height="102" as="geometry">
            <mxRectangle x="550" y="140" width="160" height="26" as="alternateBounds" />
          </mxGeometry>
        </mxCell>
        <mxCell id="iBV01vkhTkMkZKRMCeMt-12" value="DeanID" style="text;align=left;verticalAlign=top;spacingLeft=4;spacingRight=4;overflow=hidden;rotatable=0;points=[[0,0.5],[1,0.5]];portConstraint=eastwest;rounded=0;" parent="iBV01vkhTkMkZKRMCeMt-11" vertex="1">
          <mxGeometry y="26" width="160" height="24" as="geometry" />
        </mxCell>
        <mxCell id="iBV01vkhTkMkZKRMCeMt-13" value="" style="endArrow=none;html=1;rounded=0;" parent="iBV01vkhTkMkZKRMCeMt-11" edge="1">
          <mxGeometry width="50" height="50" relative="1" as="geometry">
            <mxPoint x="2" y="51" as="sourcePoint" />
            <mxPoint x="92" y="51" as="targetPoint" />
          </mxGeometry>
        </mxCell>
        <mxCell id="iBV01vkhTkMkZKRMCeMt-14" value="Start_DateÂ " style="text;align=left;verticalAlign=top;spacingLeft=4;spacingRight=4;overflow=hidden;rotatable=0;points=[[0,0.5],[1,0.5]];portConstraint=eastwest;rounded=0;shadow=0;html=0;" parent="iBV01vkhTkMkZKRMCeMt-11" vertex="1">
          <mxGeometry y="50" width="160" height="22" as="geometry" />
        </mxCell>
        <mxCell id="iBV01vkhTkMkZKRMCeMt-15" value="&amp;nbsp;End_Date" style="text;html=1;align=left;verticalAlign=middle;resizable=0;points=[];autosize=1;strokeColor=none;fillColor=none;rounded=0;" parent="iBV01vkhTkMkZKRMCeMt-11" vertex="1">
          <mxGeometry y="72" width="160" height="30" as="geometry" />
        </mxCell>
        <mxCell id="iBV01vkhTkMkZKRMCeMt-18" value="VICECHANCELLOR" style="swimlane;fontStyle=1;align=center;verticalAlign=top;childLayout=stackLayout;horizontal=1;startSize=26;horizontalStack=0;resizeParent=1;resizeLast=0;collapsible=1;marginBottom=0;rounded=0;shadow=0;strokeWidth=1;fillColor=#fff2cc;strokeColor=#d6b656;" parent="1" vertex="1">
          <mxGeometry x="510" y="250" width="160" height="102" as="geometry">
            <mxRectangle x="550" y="140" width="160" height="26" as="alternateBounds" />
          </mxGeometry>
        </mxCell>
        <mxCell id="iBV01vkhTkMkZKRMCeMt-19" value="VCID" style="text;align=left;verticalAlign=top;spacingLeft=4;spacingRight=4;overflow=hidden;rotatable=0;points=[[0,0.5],[1,0.5]];portConstraint=eastwest;rounded=0;" parent="iBV01vkhTkMkZKRMCeMt-18" vertex="1">
          <mxGeometry y="26" width="160" height="24" as="geometry" />
        </mxCell>
        <mxCell id="iBV01vkhTkMkZKRMCeMt-20" value="" style="endArrow=none;html=1;rounded=0;" parent="iBV01vkhTkMkZKRMCeMt-18" edge="1">
          <mxGeometry width="50" height="50" relative="1" as="geometry">
            <mxPoint x="2" y="51" as="sourcePoint" />
            <mxPoint x="92" y="51" as="targetPoint" />
          </mxGeometry>
        </mxCell>
        <mxCell id="iBV01vkhTkMkZKRMCeMt-21" value="Start_DateÂ " style="text;align=left;verticalAlign=top;spacingLeft=4;spacingRight=4;overflow=hidden;rotatable=0;points=[[0,0.5],[1,0.5]];portConstraint=eastwest;rounded=0;shadow=0;html=0;" parent="iBV01vkhTkMkZKRMCeMt-18" vertex="1">
          <mxGeometry y="50" width="160" height="22" as="geometry" />
        </mxCell>
        <mxCell id="iBV01vkhTkMkZKRMCeMt-22" value="&amp;nbsp;End_Date" style="text;html=1;align=left;verticalAlign=middle;resizable=0;points=[];autosize=1;strokeColor=none;fillColor=none;rounded=0;" parent="iBV01vkhTkMkZKRMCeMt-18" vertex="1">
          <mxGeometry y="72" width="160" height="30" as="geometry" />
        </mxCell>
        <mxCell id="iBV01vkhTkMkZKRMCeMt-31" style="edgeStyle=orthogonalEdgeStyle;rounded=0;orthogonalLoop=1;jettySize=auto;html=1;exitX=0.75;exitY=0;exitDx=0;exitDy=0;entryX=0.5;entryY=1;entryDx=0;entryDy=0;startArrow=ERmandOne;startFill=0;endArrow=ERoneToMany;endFill=0;" parent="1" source="iBV01vkhTkMkZKRMCeMt-25" target="2jos74vlzQx_kcMCBI00-26" edge="1">
          <mxGeometry relative="1" as="geometry" />
        </mxCell>
        <mxCell id="iBV01vkhTkMkZKRMCeMt-32" value="belongs to" style="edgeLabel;html=1;align=center;verticalAlign=middle;resizable=0;points=[];rounded=0;" parent="iBV01vkhTkMkZKRMCeMt-31" vertex="1" connectable="0">
          <mxGeometry x="0.1419" relative="1" as="geometry">
            <mxPoint as="offset" />
          </mxGeometry>
        </mxCell>
        <mxCell id="iBV01vkhTkMkZKRMCeMt-25" value="SCHOOL" style="swimlane;fontStyle=1;align=center;verticalAlign=top;childLayout=stackLayout;horizontal=1;startSize=26;horizontalStack=0;resizeParent=1;resizeLast=0;collapsible=1;marginBottom=0;rounded=0;shadow=0;strokeWidth=1;fillColor=#fff2cc;strokeColor=#d6b656;" parent="1" vertex="1">
          <mxGeometry x="-80" y="717.5" width="160" height="102" as="geometry">
            <mxRectangle x="550" y="140" width="160" height="26" as="alternateBounds" />
          </mxGeometry>
        </mxCell>
        <mxCell id="iBV01vkhTkMkZKRMCeMt-26" value="SchoolID" style="text;align=left;verticalAlign=top;spacingLeft=4;spacingRight=4;overflow=hidden;rotatable=0;points=[[0,0.5],[1,0.5]];portConstraint=eastwest;rounded=0;" parent="iBV01vkhTkMkZKRMCeMt-25" vertex="1">
          <mxGeometry y="26" width="160" height="24" as="geometry" />
        </mxCell>
        <mxCell id="iBV01vkhTkMkZKRMCeMt-27" value="" style="endArrow=none;html=1;rounded=0;" parent="iBV01vkhTkMkZKRMCeMt-25" edge="1">
          <mxGeometry width="50" height="50" relative="1" as="geometry">
            <mxPoint x="2" y="51" as="sourcePoint" />
            <mxPoint x="92" y="51" as="targetPoint" />
          </mxGeometry>
        </mxCell>
        <mxCell id="iBV01vkhTkMkZKRMCeMt-28" value="Start_DateÂ " style="text;align=left;verticalAlign=top;spacingLeft=4;spacingRight=4;overflow=hidden;rotatable=0;points=[[0,0.5],[1,0.5]];portConstraint=eastwest;rounded=0;shadow=0;html=0;" parent="iBV01vkhTkMkZKRMCeMt-25" vertex="1">
          <mxGeometry y="50" width="160" height="22" as="geometry" />
        </mxCell>
        <mxCell id="iBV01vkhTkMkZKRMCeMt-29" value="&amp;nbsp;End_Date" style="text;html=1;align=left;verticalAlign=middle;resizable=0;points=[];autosize=1;strokeColor=none;fillColor=none;rounded=0;" parent="iBV01vkhTkMkZKRMCeMt-25" vertex="1">
          <mxGeometry y="72" width="160" height="30" as="geometry" />
        </mxCell>
        <mxCell id="iBV01vkhTkMkZKRMCeMt-30" style="edgeStyle=orthogonalEdgeStyle;rounded=0;orthogonalLoop=1;jettySize=auto;html=1;entryX=0.5;entryY=0;entryDx=0;entryDy=0;endArrow=ERmandOne;endFill=0;startArrow=ERmandOne;startFill=0;" parent="1" source="iBV01vkhTkMkZKRMCeMt-15" target="iBV01vkhTkMkZKRMCeMt-25" edge="1">
          <mxGeometry relative="1" as="geometry" />
        </mxCell>
        <mxCell id="iBV01vkhTkMkZKRMCeMt-34" value="runs by" style="edgeLabel;html=1;align=center;verticalAlign=middle;resizable=0;points=[];rounded=0;" parent="iBV01vkhTkMkZKRMCeMt-30" vertex="1" connectable="0">
          <mxGeometry x="-0.0515" y="1" relative="1" as="geometry">
            <mxPoint as="offset" />
          </mxGeometry>
        </mxCell>
        <mxCell id="iBV01vkhTkMkZKRMCeMt-58" style="edgeStyle=orthogonalEdgeStyle;rounded=0;orthogonalLoop=1;jettySize=auto;html=1;entryX=-0.004;entryY=0.299;entryDx=0;entryDy=0;entryPerimeter=0;startArrow=ERzeroToMany;startFill=0;endArrow=ERmandOne;endFill=0;" parent="1" source="2jos74vlzQx_kcMCBI00-76" target="2jos74vlzQx_kcMCBI00-38" edge="1">
          <mxGeometry relative="1" as="geometry" />
        </mxCell>
        <mxCell id="iBV01vkhTkMkZKRMCeMt-59" value="performs" style="edgeLabel;html=1;align=center;verticalAlign=middle;resizable=0;points=[];rounded=0;" parent="iBV01vkhTkMkZKRMCeMt-58" vertex="1" connectable="0">
          <mxGeometry x="-0.1141" relative="1" as="geometry">
            <mxPoint x="9" as="offset" />
          </mxGeometry>
        </mxCell>
        <mxCell id="OvCN1T_yQXKMMXhpGcZw-9" style="edgeStyle=orthogonalEdgeStyle;rounded=0;orthogonalLoop=1;jettySize=auto;html=1;startArrow=ERoneToMany;startFill=0;endArrow=ERmandOne;endFill=0;entryX=0;entryY=0.5;entryDx=0;entryDy=0;" parent="1" source="OvCN1T_yQXKMMXhpGcZw-2" target="2jos74vlzQx_kcMCBI00-8" edge="1">
          <mxGeometry relative="1" as="geometry">
            <Array as="points">
              <mxPoint x="440" y="950" />
              <mxPoint x="-150" y="950" />
              <mxPoint x="-150" y="163" />
            </Array>
            <mxPoint x="-120" y="100" as="targetPoint" />
          </mxGeometry>
        </mxCell>
        <mxCell id="Thtl3EoFDPrK24X_LuAw-7" value="creating backlog" style="edgeLabel;html=1;align=center;verticalAlign=middle;resizable=0;points=[];rounded=0;" parent="OvCN1T_yQXKMMXhpGcZw-9" vertex="1" connectable="0">
          <mxGeometry x="-0.057" y="2" relative="1" as="geometry">
            <mxPoint x="-4" as="offset" />
          </mxGeometry>
        </mxCell>
        <mxCell id="iJYsFEGuUncggC2_JeM_-1" value="inputs" style="edgeLabel;html=1;align=center;verticalAlign=middle;resizable=0;points=[];" parent="OvCN1T_yQXKMMXhpGcZw-9" vertex="1" connectable="0">
          <mxGeometry x="-0.1921" y="-5" relative="1" as="geometry">
            <mxPoint x="-5" as="offset" />
          </mxGeometry>
        </mxCell>
        <mxCell id="OvCN1T_yQXKMMXhpGcZw-2" value="BACKLOG RECORDS" style="swimlane;fontStyle=5;align=center;verticalAlign=top;childLayout=stackLayout;horizontal=1;startSize=26;horizontalStack=0;resizeParent=1;resizeLast=0;collapsible=1;marginBottom=0;rounded=0;shadow=0;strokeWidth=1;fillColor=#fff2cc;strokeColor=#d6b656;" parent="1" vertex="1">
          <mxGeometry x="360" y="1010" width="160" height="90" as="geometry">
            <mxRectangle x="360" y="1010" width="160" height="26" as="alternateBounds" />
          </mxGeometry>
        </mxCell>
        <mxCell id="OvCN1T_yQXKMMXhpGcZw-3" value="RecordsID" style="text;align=left;verticalAlign=top;spacingLeft=4;spacingRight=4;overflow=hidden;rotatable=0;points=[[0,0.5],[1,0.5]];portConstraint=eastwest;rounded=0;" parent="OvCN1T_yQXKMMXhpGcZw-2" vertex="1">
          <mxGeometry y="26" width="160" height="26" as="geometry" />
        </mxCell>
        <mxCell id="OvCN1T_yQXKMMXhpGcZw-4" value="" style="endArrow=none;html=1;rounded=0;" parent="OvCN1T_yQXKMMXhpGcZw-2" edge="1">
          <mxGeometry width="50" height="50" relative="1" as="geometry">
            <mxPoint x="2" y="51" as="sourcePoint" />
            <mxPoint x="92" y="51" as="targetPoint" />
          </mxGeometry>
        </mxCell>
        <mxCell id="35vEsGfmbX0hUBV-dkg--1" value="Timestamps" style="text;html=1;align=left;verticalAlign=middle;resizable=0;points=[];autosize=1;strokeColor=none;fillColor=none;" parent="OvCN1T_yQXKMMXhpGcZw-2" vertex="1">
          <mxGeometry y="52" width="160" height="30" as="geometry" />
        </mxCell>
        <mxCell id="CVn_4utd9kQLh8Rls4Vv-8" style="edgeStyle=orthogonalEdgeStyle;rounded=0;orthogonalLoop=1;jettySize=auto;html=1;endArrow=ERoneToMany;endFill=0;startArrow=ERmandOne;startFill=0;" parent="1" source="2jos74vlzQx_kcMCBI00-72" edge="1">
          <mxGeometry relative="1" as="geometry">
            <mxPoint x="520" y="1076" as="targetPoint" />
            <Array as="points">
              <mxPoint x="540" y="1076" />
              <mxPoint x="540" y="1076" />
            </Array>
          </mxGeometry>
        </mxCell>
      </root>
    </mxGraphModel>
  </diagram>
</mxfile>
